<svg version="1.2" xmlns="http://www.w3.org/2000/svg" viewBox="0 0 1080 1080" width="1080" height="1080"><style>.a{fill:#1fc0b7}.b{fill:#fb7650}.c{fill:#233233}</style><path fill-rule="evenodd" class="a" d="m420 740.4v40.1h-40.1v-40.1z"/><path fill-rule="evenodd" class="a" d="m420 780.5v40.1h-40.1v-40.1z"/><path fill-rule="evenodd" class="a" d="m379.9 740.4v40.1h-40.2v-40.1z"/><path fill-rule="evenodd" class="a" d="m379.9 780.5v40.1h-40.2v-40.1z"/><path fill-rule="evenodd" class="a" d="m339.7 740.4v40.1h-40.1v-40.1z"/><path fill-rule="evenodd" class="a" d="m339.7 780.5v40.1h-40.1v-40.1z"/><path fill-rule="evenodd" class="a" d="m299.6 780.5v40.1h-40.2v-40.1z"/><path fill-rule="evenodd" class="a" d="m540.5 780.5v40.1h-40.2v-40.1z"/><path fill-rule="evenodd" class="a" d="m580.6 780.5v40.1h-40.1v-40.1z"/><path fill-rule="evenodd" class="a" d="m620.8 780.5v40.1h-40.2v-40.1z"/><path fill-rule="evenodd" class="a" d="m620.8 740.4v40.1h-40.2v-40.1z"/><path fill-rule="evenodd" class="a" d="m660.9 780.5v40.1h-40.1v-40.1z"/><path fill-rule="evenodd" class="a" d="m660.9 740.4v40.1h-40.1v-40.1z"/><path fill-rule="evenodd" class="a" d="m701.1 740.4v40.1h-40.2v-40.1z"/><path fill-rule="evenodd" class="a" d="m701.1 700.2v40.2h-40.2v-40.2z"/><path fill-rule="evenodd" class="a" d="m741.2 740.4v40.1h-40.1v-40.1z"/><path fill-rule="evenodd" class="a" d="m741.2 700.2v40.2h-40.1v-40.2z"/><path fill-rule="evenodd" class="a" d="m781.4 700.2v40.2h-40.2v-40.2z"/><path fill-rule="evenodd" class="a" d="m781.4 660.1v40.1h-40.2v-40.1z"/><path fill-rule="evenodd" class="a" d="m821.5 700.2v40.2h-40.1v-40.2z"/><path fill-rule="evenodd" class="a" d="m861.6 700.2v40.2h-40.1v-40.2z"/><path fill-rule="evenodd" class="a" d="m901.8 700.2v40.2h-40.2v-40.2z"/><path fill-rule="evenodd" class="a" d="m941.9 700.2v40.2h-40.1v-40.2z"/><path fill-rule="evenodd" class="a" d="m821.5 660.1v40.1h-40.1v-40.1z"/><path fill-rule="evenodd" class="a" d="m460.2 780.5v40.1h-40.2v-40.1z"/><path fill-rule="evenodd" class="a" d="m420 780.5v40.1h-40.1v-40.1z"/><path fill-rule="evenodd" class="a" d="m379.9 780.5v40.1h-40.2v-40.1z"/><path fill-rule="evenodd" class="a" d="m339.7 780.5v40.1h-40.1v-40.1z"/><path fill-rule="evenodd" class="a" d="m460.2 780.5v40.1h-40.2v-40.1z"/><path fill-rule="evenodd" class="a" d="m420 820.6v40.2h-40.1v-40.2z"/><path fill-rule="evenodd" class="a" d="m379.9 820.6v40.2h-40.2v-40.2z"/><path fill-rule="evenodd" class="a" d="m339.7 820.6v40.2h-40.1v-40.2z"/><path fill-rule="evenodd" class="a" d="m460.2 820.6v40.2h-40.2v-40.2z"/><path fill-rule="evenodd" class="a" d="m420 860.8v40.1h-40.1v-40.1z"/><path fill-rule="evenodd" class="a" d="m460.2 860.8v40.1h-40.2v-40.1z"/><path fill-rule="evenodd" class="a" d="m500.3 780.5v40.1h-40.1v-40.1z"/><path fill-rule="evenodd" class="a" d="m540.5 820.6v40.2h-40.2v-40.2z"/><path fill-rule="evenodd" class="a" d="m500.3 820.6v40.2h-40.1v-40.2z"/><path fill-rule="evenodd" class="a" d="m540.5 860.8v40.1h-40.2v-40.1z"/><path fill-rule="evenodd" class="a" d="m500.3 860.8v40.1h-40.1v-40.1z"/><path fill-rule="evenodd" class="a" d="m540.5 900.9v40.2h-40.2v-40.2z"/><path fill-rule="evenodd" class="a" d="m500.3 900.9v40.2h-40.1v-40.2z"/><path fill-rule="evenodd" class="a" d="m620.8 820.6v40.2h-40.2v-40.2z"/><path fill-rule="evenodd" class="a" d="m580.6 820.6v40.2h-40.1v-40.2z"/><path fill-rule="evenodd" class="a" d="m620.8 860.8v40.1h-40.2v-40.1z"/><path fill-rule="evenodd" class="a" d="m660.9 820.6v40.2h-40.1v-40.2z"/><path fill-rule="evenodd" class="a" d="m660.9 860.8v40.1h-40.1v-40.1z"/><path fill-rule="evenodd" class="a" d="m701.1 780.5v40.1h-40.2v-40.1z"/><path fill-rule="evenodd" class="a" d="m701.1 820.6v40.2h-40.2v-40.2z"/><path fill-rule="evenodd" class="a" d="m741.2 780.5v40.1h-40.1v-40.1z"/><path fill-rule="evenodd" class="a" d="m741.2 820.6v40.2h-40.1v-40.2z"/><path fill-rule="evenodd" class="a" d="m781.4 740.4v40.1h-40.2v-40.1z"/><path fill-rule="evenodd" class="a" d="m781.4 780.5v40.1h-40.2v-40.1z"/><path fill-rule="evenodd" class="a" d="m821.5 740.4v40.1h-40.1v-40.1z"/><path fill-rule="evenodd" class="a" d="m861.6 740.4v40.1h-40.1v-40.1z"/><path fill-rule="evenodd" class="a" d="m901.8 740.4v40.1h-40.2v-40.1z"/><path fill-rule="evenodd" class="a" d="m821.5 780.5v40.1h-40.1v-40.1z"/><path fill-rule="evenodd" class="a" d="m580.6 860.8v40.1h-40.1v-40.1z"/><path fill-rule="evenodd" class="a" d="m580.6 900.9v40.2h-40.1v-40.2z"/><path fill-rule="evenodd" class="b" d="m339.7 539.6v40.2h-40.1v-40.2z"/><path fill-rule="evenodd" class="b" d="m379.9 539.6v40.2h-40.2v-40.2z"/><path fill-rule="evenodd" class="b" d="m420 539.6v40.2h-40.1v-40.2z"/><path fill-rule="evenodd" class="b" d="m339.7 579.8v40.1h-40.1v-40.1z"/><path fill-rule="evenodd" class="b" d="m379.9 579.8v40.1h-40.2v-40.1z"/><path fill-rule="evenodd" class="b" d="m420 579.8v40.1h-40.1v-40.1z"/><path fill-rule="evenodd" class="b" d="m339.7 619.9v40.2h-40.1v-40.2z"/><path fill-rule="evenodd" class="b" d="m379.9 619.9v40.2h-40.2v-40.2z"/><path fill-rule="evenodd" class="b" d="m259.4 579.8v40.1h-40.1v-40.1z"/><path fill-rule="evenodd" class="b" d="m299.6 579.8v40.1h-40.2v-40.1z"/><path fill-rule="evenodd" class="b" d="m300.7 539.6v40.2h-40.1v-40.2z"/><path fill-rule="evenodd" class="b" d="m300.7 579.8v40.1h-40.1v-40.1z"/><path fill-rule="evenodd" class="b" d="m300.7 619.9v40.2h-40.1v-40.2z"/><path fill-rule="evenodd" class="b" d="m220.4 579.8v40.1h-40.1v-40.1z"/><path fill-rule="evenodd" class="b" d="m260.6 579.8v40.1h-40.2v-40.1z"/><path fill-rule="evenodd" class="b" d="m420 619.9v40.2h-40.1v-40.2z"/><path fill-rule="evenodd" class="b" d="m540.5 579.8v40.1h-40.2v-40.1z"/><path fill-rule="evenodd" class="b" d="m580.6 579.8v40.1h-40.1v-40.1z"/><path fill-rule="evenodd" class="b" d="m620.8 579.8v40.1h-40.2v-40.1z"/><path fill-rule="evenodd" class="b" d="m620.8 539.6v40.2h-40.2v-40.2z"/><path fill-rule="evenodd" class="b" d="m660.9 539.6v40.2h-40.1v-40.2z"/><path fill-rule="evenodd" class="b" d="m701.1 539.6v40.2h-40.2v-40.2z"/><path fill-rule="evenodd" class="b" d="m741.2 539.6v40.2h-40.1v-40.2z"/><path fill-rule="evenodd" class="b" d="m781.4 539.6v40.2h-40.2v-40.2z"/><path fill-rule="evenodd" class="b" d="m821.5 539.6v40.2h-40.1v-40.2z"/><path fill-rule="evenodd" class="b" d="m701.1 539.6v40.2h-40.2v-40.2z"/><path fill-rule="evenodd" class="b" d="m741.2 539.6v40.2h-40.1v-40.2z"/><path fill-rule="evenodd" class="b" d="m781.4 539.6v40.2h-40.2v-40.2z"/><path fill-rule="evenodd" class="b" d="m821.5 539.6v40.2h-40.1v-40.2z"/><path fill-rule="evenodd" class="b" d="m701.1 499.5v40.1h-40.2v-40.1z"/><path fill-rule="evenodd" class="b" d="m741.2 499.5v40.1h-40.1v-40.1z"/><path fill-rule="evenodd" class="b" d="m781.4 499.5v40.1h-40.2v-40.1z"/><path fill-rule="evenodd" class="b" d="m821.5 499.5v40.1h-40.1v-40.1z"/><path fill-rule="evenodd" class="b" d="m781.4 499.5v40.1h-40.2v-40.1z"/><path fill-rule="evenodd" class="b" d="m821.5 499.5v40.1h-40.1v-40.1z"/><path fill-rule="evenodd" class="b" d="m781.4 459.3v40.2h-40.2v-40.2z"/><path fill-rule="evenodd" class="b" d="m821.5 459.3v40.2h-40.1v-40.2z"/><path fill-rule="evenodd" class="b" d="m861.6 539.6v40.2h-40.1v-40.2z"/><path fill-rule="evenodd" class="b" d="m901.8 539.6v40.2h-40.2v-40.2z"/><path fill-rule="evenodd" class="b" d="m861.6 499.5v40.1h-40.1v-40.1z"/><path fill-rule="evenodd" class="b" d="m901.8 499.5v40.1h-40.2v-40.1z"/><path fill-rule="evenodd" class="b" d="m941.9 539.6v40.2h-40.1v-40.2z"/><path fill-rule="evenodd" class="b" d="m540.5 619.9v40.2h-40.2v-40.2z"/><path fill-rule="evenodd" class="b" d="m580.6 619.9v40.2h-40.1v-40.2z"/><path fill-rule="evenodd" class="b" d="m460.2 579.8v40.1h-40.2v-40.1z"/><path fill-rule="evenodd" class="b" d="m500.3 579.8v40.1h-40.1v-40.1z"/><path fill-rule="evenodd" class="b" d="m460.2 619.9v40.2h-40.2v-40.2z"/><path fill-rule="evenodd" class="b" d="m500.3 619.9v40.2h-40.1v-40.2z"/><path fill-rule="evenodd" class="b" d="m620.8 619.9v40.2h-40.2v-40.2z"/><path fill-rule="evenodd" class="b" d="m420 660.1v40.1h-40.1v-40.1z"/><path fill-rule="evenodd" class="b" d="m460.2 660.1v40.1h-40.2v-40.1z"/><path fill-rule="evenodd" class="b" d="m500.3 660.1v40.1h-40.1v-40.1z"/><path fill-rule="evenodd" class="b" d="m540.5 660.1v40.1h-40.2v-40.1z"/><path fill-rule="evenodd" class="b" d="m500.3 700.2v40.2h-40.1v-40.2z"/><path fill-rule="evenodd" class="b" d="m540.5 700.2v40.2h-40.2v-40.2z"/><path fill-rule="evenodd" class="b" d="m580.6 660.1v40.1h-40.1v-40.1z"/><path fill-rule="evenodd" class="b" d="m620.8 660.1v40.1h-40.2v-40.1z"/><path fill-rule="evenodd" class="b" d="m660.9 619.9v40.2h-40.1v-40.2z"/><path fill-rule="evenodd" class="b" d="m701.1 619.9v40.2h-40.2v-40.2z"/><path fill-rule="evenodd" class="b" d="m660.9 619.9v40.2h-40.1v-40.2z"/><path fill-rule="evenodd" class="b" d="m701.1 619.9v40.2h-40.2v-40.2z"/><path fill-rule="evenodd" class="b" d="m741.2 579.8v40.1h-40.1v-40.1z"/><path fill-rule="evenodd" class="b" d="m781.4 579.8v40.1h-40.2v-40.1z"/><path fill-rule="evenodd" class="b" d="m741.2 579.8v40.1h-40.1v-40.1z"/><path fill-rule="evenodd" class="b" d="m781.4 579.8v40.1h-40.2v-40.1z"/><path fill-rule="evenodd" class="b" d="m660.9 579.8v40.1h-40.1v-40.1z"/><path fill-rule="evenodd" class="b" d="m701.1 579.8v40.1h-40.2v-40.1z"/><path fill-rule="evenodd" class="a" d="m259.4 298.7v40.2h-40.1v-40.2z"/><path fill-rule="evenodd" class="a" d="m299.6 298.7v40.2h-40.2v-40.2z"/><path fill-rule="evenodd" class="a" d="m339.7 298.7v40.2h-40.1v-40.2z"/><path fill-rule="evenodd" class="a" d="m379.9 298.7v40.2h-40.2v-40.2z"/><path fill-rule="evenodd" class="a" d="m420 298.7v40.2h-40.1v-40.2z"/><path fill-rule="evenodd" class="a" d="m460.2 298.7v40.2h-40.2v-40.2z"/><path fill-rule="evenodd" class="a" d="m500.3 298.7v40.2h-40.1v-40.2z"/><path fill-rule="evenodd" class="a" d="m540.5 298.7v40.2h-40.2v-40.2z"/><path fill-rule="evenodd" class="a" d="m580.6 298.7v40.2h-40.1v-40.2z"/><path fill-rule="evenodd" class="a" d="m620.8 298.7v40.2h-40.2v-40.2z"/><path fill-rule="evenodd" class="a" d="m660.9 298.7v40.2h-40.1v-40.2z"/><path fill-rule="evenodd" class="a" d="m701.1 298.7v40.2h-40.2v-40.2z"/><path fill-rule="evenodd" class="a" d="m741.2 298.7v40.2h-40.1v-40.2z"/><path fill-rule="evenodd" class="a" d="m781.4 298.7v40.2h-40.2v-40.2z"/><path fill-rule="evenodd" class="a" d="m821.5 298.7v40.2h-40.1v-40.2z"/><path fill-rule="evenodd" class="a" d="m299.6 258.6v40.1h-40.2v-40.1z"/><path fill-rule="evenodd" class="a" d="m339.7 258.6v40.1h-40.1v-40.1z"/><path fill-rule="evenodd" class="a" d="m339.7 258.6v40.1h-40.1v-40.1z"/><path fill-rule="evenodd" class="a" d="m379.9 258.6v40.1h-40.2v-40.1z"/><path fill-rule="evenodd" class="a" d="m420 258.6v40.1h-40.1v-40.1z"/><path fill-rule="evenodd" class="a" d="m420 258.6v40.1h-40.1v-40.1z"/><path fill-rule="evenodd" class="a" d="m460.2 258.6v40.1h-40.2v-40.1z"/><path fill-rule="evenodd" class="a" d="m500.3 258.6v40.1h-40.1v-40.1z"/><path fill-rule="evenodd" class="a" d="m500.3 258.6v40.1h-40.1v-40.1z"/><path fill-rule="evenodd" class="a" d="m540.5 258.6v40.1h-40.2v-40.1z"/><path fill-rule="evenodd" class="a" d="m580.6 258.6v40.1h-40.1v-40.1z"/><path fill-rule="evenodd" class="a" d="m580.6 258.6v40.1h-40.1v-40.1z"/><path fill-rule="evenodd" class="a" d="m620.8 258.6v40.1h-40.2v-40.1z"/><path fill-rule="evenodd" class="a" d="m660.9 258.6v40.1h-40.1v-40.1z"/><path fill-rule="evenodd" class="a" d="m660.9 258.6v40.1h-40.1v-40.1z"/><path fill-rule="evenodd" class="a" d="m701.1 258.6v40.1h-40.2v-40.1z"/><path fill-rule="evenodd" class="a" d="m741.2 258.6v40.1h-40.1v-40.1z"/><path fill-rule="evenodd" class="a" d="m741.2 258.6v40.1h-40.1v-40.1z"/><path fill-rule="evenodd" class="a" d="m379.9 218.4v40.2h-40.2v-40.2z"/><path fill-rule="evenodd" class="a" d="m420 218.4v40.2h-40.1v-40.2z"/><path fill-rule="evenodd" class="a" d="m420 218.4v40.2h-40.1v-40.2z"/><path fill-rule="evenodd" class="a" d="m460.2 218.4v40.2h-40.2v-40.2z"/><path fill-rule="evenodd" class="a" d="m500.3 218.4v40.2h-40.1v-40.2z"/><path fill-rule="evenodd" class="a" d="m500.3 218.4v40.2h-40.1v-40.2z"/><path fill-rule="evenodd" class="a" d="m540.5 218.4v40.2h-40.2v-40.2z"/><path fill-rule="evenodd" class="a" d="m580.6 218.4v40.2h-40.1v-40.2z"/><path fill-rule="evenodd" class="a" d="m580.6 218.4v40.2h-40.1v-40.2z"/><path fill-rule="evenodd" class="a" d="m620.8 218.4v40.2h-40.2v-40.2z"/><path fill-rule="evenodd" class="a" d="m660.9 218.4v40.2h-40.1v-40.2z"/><path fill-rule="evenodd" class="a" d="m660.9 218.4v40.2h-40.1v-40.2z"/><path fill-rule="evenodd" class="a" d="m460.2 178.3v40.1h-40.2v-40.1z"/><path fill-rule="evenodd" class="a" d="m500.3 178.3v40.1h-40.1v-40.1z"/><path fill-rule="evenodd" class="a" d="m500.3 178.3v40.1h-40.1v-40.1z"/><path fill-rule="evenodd" class="a" d="m540.5 178.3v40.1h-40.2v-40.1z"/><path fill-rule="evenodd" class="a" d="m580.6 178.3v40.1h-40.1v-40.1z"/><path fill-rule="evenodd" class="a" d="m580.6 178.3v40.1h-40.1v-40.1z"/><path fill-rule="evenodd" class="a" d="m540.5 138.1v40.2h-40.2v-40.2z"/><path fill-rule="evenodd" class="a" d="m580.6 138.1v40.2h-40.1v-40.2z"/><path fill-rule="evenodd" class="a" d="m580.6 138.1v40.2h-40.1v-40.2z"/><path fill-rule="evenodd" class="a" d="m620.8 178.3v40.1h-40.2v-40.1z"/><path fill-rule="evenodd" class="a" d="m660.9 178.3v40.1h-40.1v-40.1z"/><path fill-rule="evenodd" class="a" d="m660.9 178.3v40.1h-40.1v-40.1z"/><path fill-rule="evenodd" class="a" d="m701.1 218.4v40.2h-40.2v-40.2z"/><path fill-rule="evenodd" class="a" d="m741.2 218.4v40.2h-40.1v-40.2z"/><path fill-rule="evenodd" class="a" d="m741.2 218.4v40.2h-40.1v-40.2z"/><path fill-rule="evenodd" class="a" d="m781.4 258.6v40.1h-40.2v-40.1z"/><path fill-rule="evenodd" class="a" d="m821.5 258.6v40.1h-40.1v-40.1z"/><path fill-rule="evenodd" class="a" d="m821.5 258.6v40.1h-40.1v-40.1z"/><path fill-rule="evenodd" class="a" d="m861.6 298.7v40.2h-40.1v-40.2z"/><path fill-rule="evenodd" class="a" d="m901.8 298.7v40.2h-40.2v-40.2z"/><path fill-rule="evenodd" class="a" d="m219.3 338.9v40.1h-40.2v-40.1z"/><path fill-rule="evenodd" class="a" d="m259.4 338.9v40.1h-40.1v-40.1z"/><path fill-rule="evenodd" class="a" d="m299.6 338.9v40.1h-40.2v-40.1z"/><path fill-rule="evenodd" class="a" d="m339.7 338.9v40.1h-40.1v-40.1z"/><path fill-rule="evenodd" class="a" d="m379.9 338.9v40.1h-40.2v-40.1z"/><path fill-rule="evenodd" class="a" d="m420 338.9v40.1h-40.1v-40.1z"/><path fill-rule="evenodd" class="a" d="m460.2 338.9v40.1h-40.2v-40.1z"/><path fill-rule="evenodd" class="a" d="m500.3 338.9v40.1h-40.1v-40.1z"/><path fill-rule="evenodd" class="a" d="m540.5 338.9v40.1h-40.2v-40.1z"/><path fill-rule="evenodd" class="a" d="m580.6 338.9v40.1h-40.1v-40.1z"/><path fill-rule="evenodd" class="a" d="m620.8 338.9v40.1h-40.2v-40.1z"/><path fill-rule="evenodd" class="a" d="m660.9 338.9v40.1h-40.1v-40.1z"/><path fill-rule="evenodd" class="a" d="m701.1 338.9v40.1h-40.2v-40.1z"/><path fill-rule="evenodd" class="a" d="m741.2 338.9v40.1h-40.1v-40.1z"/><path fill-rule="evenodd" class="a" d="m781.4 338.9v40.1h-40.2v-40.1z"/><path fill-rule="evenodd" class="a" d="m259.4 379v40.2h-40.1v-40.2z"/><path fill-rule="evenodd" class="a" d="m299.6 379v40.2h-40.2v-40.2z"/><path fill-rule="evenodd" class="a" d="m339.7 379v40.2h-40.1v-40.2z"/><path fill-rule="evenodd" class="a" d="m379.9 379v40.2h-40.2v-40.2z"/><path fill-rule="evenodd" class="a" d="m420 379v40.2h-40.1v-40.2z"/><path fill-rule="evenodd" class="a" d="m460.2 379v40.2h-40.2v-40.2z"/><path fill-rule="evenodd" class="a" d="m500.3 379v40.2h-40.1v-40.2z"/><path fill-rule="evenodd" class="a" d="m540.5 379v40.2h-40.2v-40.2z"/><path fill-rule="evenodd" class="a" d="m580.6 379v40.2h-40.1v-40.2z"/><path fill-rule="evenodd" class="a" d="m620.8 379v40.2h-40.2v-40.2z"/><path fill-rule="evenodd" class="a" d="m660.9 379v40.2h-40.1v-40.2z"/><path fill-rule="evenodd" class="a" d="m701.1 379v40.2h-40.2v-40.2z"/><path fill-rule="evenodd" class="a" d="m339.7 419.2v40.1h-40.1v-40.1z"/><path fill-rule="evenodd" class="a" d="m379.9 419.2v40.1h-40.2v-40.1z"/><path fill-rule="evenodd" class="a" d="m420 419.2v40.1h-40.1v-40.1z"/><path fill-rule="evenodd" class="a" d="m339.7 419.2v40.1h-40.1v-40.1z"/><path fill-rule="evenodd" class="a" d="m379.9 419.2v40.1h-40.2v-40.1z"/><path fill-rule="evenodd" class="a" d="m420 419.2v40.1h-40.1v-40.1z"/><path fill-rule="evenodd" class="a" d="m460.2 419.2v40.1h-40.2v-40.1z"/><path fill-rule="evenodd" class="a" d="m500.3 419.2v40.1h-40.1v-40.1z"/><path fill-rule="evenodd" class="a" d="m540.5 419.2v40.1h-40.2v-40.1z"/><path fill-rule="evenodd" class="a" d="m580.6 419.2v40.1h-40.1v-40.1z"/><path fill-rule="evenodd" class="a" d="m620.8 419.2v40.1h-40.2v-40.1z"/><path fill-rule="evenodd" class="a" d="m420 459.3v40.2h-40.1v-40.2z"/><path fill-rule="evenodd" class="a" d="m460.2 459.3v40.2h-40.2v-40.2z"/><path fill-rule="evenodd" class="a" d="m500.3 459.3v40.2h-40.1v-40.2z"/><path fill-rule="evenodd" class="a" d="m540.5 459.3v40.2h-40.2v-40.2z"/><path fill-rule="evenodd" class="a" d="m500.3 499.5v40.1h-40.1v-40.1z"/><path fill-rule="evenodd" class="a" d="m540.5 499.5v40.1h-40.2v-40.1z"/><path fill-rule="evenodd" class="a" d="m580.6 459.3v40.2h-40.1v-40.2z"/><path fill-rule="evenodd" class="a" d="m620.8 459.3v40.2h-40.2v-40.2z"/><path fill-rule="evenodd" class="a" d="m660.9 419.2v40.1h-40.1v-40.1z"/><path fill-rule="evenodd" class="a" d="m701.1 419.2v40.1h-40.2v-40.1z"/><path fill-rule="evenodd" class="a" d="m741.2 379v40.2h-40.1v-40.2z"/><path fill-rule="evenodd" class="a" d="m781.4 379v40.2h-40.2v-40.2z"/><path fill-rule="evenodd" class="a" d="m781.4 379v40.2h-40.2v-40.2z"/><path fill-rule="evenodd" class="a" d="m821.5 338.9v40.1h-40.1v-40.1z"/><path fill-rule="evenodd" class="a" d="m861.6 338.9v40.1h-40.1v-40.1z"/><path fill-rule="evenodd" class="c" d="m540.5 98v40.1h-40.2v-40.1z"/><path fill-rule="evenodd" class="c" d="m580.6 98v40.1h-40.1v-40.1z"/><path fill-rule="evenodd" class="c" d="m620.8 138.1v40.2h-40.2v-40.2z"/><path fill-rule="evenodd" class="c" d="m660.9 138.1v40.2h-40.1v-40.2z"/><path fill-rule="evenodd" class="c" d="m701.1 178.3v40.1h-40.2v-40.1z"/><path fill-rule="evenodd" class="c" d="m741.2 178.3v40.1h-40.1v-40.1z"/><path fill-rule="evenodd" class="c" d="m781.4 218.4v40.2h-40.2v-40.2z"/><path fill-rule="evenodd" class="c" d="m821.5 218.4v40.2h-40.1v-40.2z"/><path fill-rule="evenodd" class="c" d="m861.6 258.6v40.1h-40.1v-40.1z"/><path fill-rule="evenodd" class="c" d="m901.8 258.6v40.1h-40.2v-40.1z"/><path fill-rule="evenodd" class="c" d="m941.9 298.7v40.2h-40.1v-40.2z"/><path fill-rule="evenodd" class="c" d="m821.5 379v40.2h-40.1v-40.2z"/><path fill-rule="evenodd" class="c" d="m861.6 379v40.2h-40.1v-40.2z"/><path fill-rule="evenodd" class="c" d="m901.8 338.9v40.1h-40.2v-40.1z"/><path fill-rule="evenodd" class="c" d="m941.9 338.9v40.1h-40.1v-40.1z"/><path fill-rule="evenodd" class="c" d="m460.2 138.1v40.2h-40.2v-40.2z"/><path fill-rule="evenodd" class="c" d="m500.3 138.1v40.2h-40.1v-40.2z"/><path fill-rule="evenodd" class="c" d="m379.9 178.3v40.1h-40.2v-40.1z"/><path fill-rule="evenodd" class="c" d="m420 178.3v40.1h-40.1v-40.1z"/><path fill-rule="evenodd" class="c" d="m339.7 459.3v40.2h-40.1v-40.2z"/><path fill-rule="evenodd" class="c" d="m379.9 459.3v40.2h-40.2v-40.2z"/><path fill-rule="evenodd" class="c" d="m259.4 419.2v40.1h-40.1v-40.1z"/><path fill-rule="evenodd" class="c" d="m299.6 419.2v40.1h-40.2v-40.1z"/><path fill-rule="evenodd" class="c" d="m299.6 459.3v40.2h-40.2v-40.2z"/><path fill-rule="evenodd" class="c" d="m179.1 379v40.2h-40.1v-40.2z"/><path fill-rule="evenodd" class="c" d="m219.3 379v40.2h-40.2v-40.2z"/><path fill-rule="evenodd" class="c" d="m219.2 419.1l0.2 40.1-40.2 0.2-0.1-40.1z"/><path fill-rule="evenodd" class="c" d="m179.1 298.7v40.2h-40.1v-40.2z"/><path fill-rule="evenodd" class="c" d="m179.1 338.9v40.1h-40.1v-40.1z"/><path fill-rule="evenodd" class="c" d="m219.3 298.7v40.2h-40.2v-40.2z"/><path fill-rule="evenodd" class="c" d="m299.6 218.4v40.2h-40.2v-40.2z"/><path fill-rule="evenodd" class="c" d="m259.4 258.6v40.1h-40.1v-40.1z"/><path fill-rule="evenodd" class="c" d="m339.7 218.4v40.2h-40.1v-40.2z"/><path fill-rule="evenodd" class="c" d="m420 900.9v40.2h-40.1v-40.2z"/><path fill-rule="evenodd" class="c" d="m460.2 900.9v40.2h-40.2v-40.2z"/><path fill-rule="evenodd" class="c" d="m500.3 941.1v40.1h-40.1v-40.1z"/><path fill-rule="evenodd" class="c" d="m540.5 941.1v40.1h-40.2v-40.1z"/><path fill-rule="evenodd" class="c" d="m580.6 941.1v40.1h-40.1v-40.1z"/><path fill-rule="evenodd" class="c" d="m620.8 900.9v40.2h-40.2v-40.2z"/><path fill-rule="evenodd" class="c" d="m660.9 900.9v40.2h-40.1v-40.2z"/><path fill-rule="evenodd" class="c" d="m701.1 860.8v40.1h-40.2v-40.1z"/><path fill-rule="evenodd" class="c" d="m741.2 860.8v40.1h-40.1v-40.1z"/><path fill-rule="evenodd" class="c" d="m781.4 820.6v40.2h-40.2v-40.2z"/><path fill-rule="evenodd" class="c" d="m821.5 820.6v40.2h-40.1v-40.2z"/><path fill-rule="evenodd" class="c" d="m861.6 780.5v40.1h-40.1v-40.1z"/><path fill-rule="evenodd" class="c" d="m901.8 780.5v40.1h-40.2v-40.1z"/><path fill-rule="evenodd" class="c" d="m941.9 740.4v40.1h-40.1v-40.1z"/><path fill-rule="evenodd" class="c" d="m339.7 860.8v40.1h-40.1v-40.1z"/><path fill-rule="evenodd" class="c" d="m379.9 860.8v40.1h-40.2v-40.1z"/><path fill-rule="evenodd" class="c" d="m259.4 820.6v40.2h-40.1v-40.2z"/><path fill-rule="evenodd" class="c" d="m259.4 780.5v40.1h-40.1v-40.1z"/><path fill-rule="evenodd" class="c" d="m299.6 820.6v40.2h-40.2v-40.2z"/></svg>